{
  "accessors": [
    {
      "bufferView": 2,
      "componentType": 5126,
      "count": 10162,
      "max": [
        1.2480390071868896,
        1.0551520586013794,
        1.4039640426635742
      ],
      "min": [
        -1.2480390071868896,
        -1.2492740154266357,
        -1.1477359533309937
      ],
      "type": "VEC3"
    },
    {
      "bufferView": 2,
      "byteOffset": 121944,
      "componentType": 5126,
      "count": 10162,
      "max": [
        0.99995714426040649,
        0.99997949600219727,
        0.99996191263198853
      ],
      "min": [
        -0.99995714426040649,
        -0.99998748302459717,
        -0.99999654293060303
      ],
      "type": "VEC3"
    },
    {
      "bufferView": 3,
      "componentType": 5126,
      "count": 10162,
      "max": [
        0.99987876415252686,
        0.9999966025352478,
        0.99955081939697266,
        1
      ],
      "min": [
        -0.99987876415252686,
        -0.99916213750839233,
        -0.99998754262924194,
        -1
      ],
      "type": "VEC4"
    },
    {
      "bufferView": 1,
      "componentType": 5126,
      "count": 10162,
      "max": [
        0.99588698148727417,
        0.99598997831344604
      ],
      "min": [
        0.007890000008046627,
        0.0088250003755092621
      ],
      "type": "VEC2"
    },
    {
      "bufferView": 0,
      "componentType": 5125,
      "count": 53184,
      "max": [
        10161
      ],
      "min": [
        0
      ],
      "type": "SCALAR"
    },
    {
      "bufferView": 4,
      "componentType": 5126,
      "count": 1,
      "max": [
        0.041666667908430099
      ],
      "min": [
        0.041666667908430099
      ],
      "type": "SCALAR"
    },
    {
      "bufferView": 5,
      "componentType": 5126,
      "count": 1,
      "max": [
        0,
        0,
        0
      ],
      "min": [
        0,
        0,
        0
      ],
      "type": "VEC3"
    },
    {
      "bufferView": 4,
      "byteOffset": 4,
      "componentType": 5126,
      "count": 1,
      "max": [
        0.041666667908430099
      ],
      "min": [
        0.041666667908430099
      ],
      "type": "SCALAR"
    },
    {
      "bufferView": 5,
      "byteOffset": 12,
      "componentType": 5126,
      "count": 1,
      "max": [
        1,
        1,
        1
      ],
      "min": [
        1,
        1,
        1
      ],
      "type": "VEC3"
    }
  ],
  "animations": [
    {
      "channels": [
        {
          "sampler": 0,
          "target": {
            "node": 4,
            "path": "translation"
          }
        },
        {
          "sampler": 1,
          "target": {
            "node": 4,
            "path": "scale"
          }
        }
      ],
      "name": "Default Take",
      "samplers": [
        {
          "input": 5,
          "interpolation": "LINEAR",
          "output": 6
        },
        {
          "input": 7,
          "interpolation": "LINEAR",
          "output": 8
        }
      ]
    }
  ],
  "asset": {
    "extras": {
      "author": "z4g0 (https://sketchfab.com/z4g0)",
      "license": "CC-BY-4.0 (http://creativecommons.org/licenses/by/4.0/)",
      "source": "https://sketchfab.com/models/c8e36476d01742f69bd213a62a028024",
      "title": "Cacodemon"
    },
    "generator": "Sketchfab-3.29.1",
    "version": "2.0"
  },
  "bufferViews": [
    {
      "buffer": 0,
      "byteLength": 212736,
      "byteOffset": 0,
      "name": "floatBufferViews",
      "target": 34963
    },
    {
      "buffer": 0,
      "byteLength": 81296,
      "byteOffset": 212736,
      "byteStride": 8,
      "name": "floatBufferViews",
      "target": 34962
    },
    {
      "buffer": 0,
      "byteLength": 243888,
      "byteOffset": 294032,
      "byteStride": 12,
      "name": "floatBufferViews",
      "target": 34962
    },
    {
      "buffer": 0,
      "byteLength": 162592,
      "byteOffset": 537920,
      "byteStride": 16,
      "name": "floatBufferViews",
      "target": 34962
    },
    {
      "buffer": 0,
      "byteLength": 8,
      "byteOffset": 700512,
      "name": "floatBufferViews"
    },
    {
      "buffer": 0,
      "byteLength": 24,
      "byteOffset": 700520,
      "byteStride": 12,
      "name": "floatBufferViews"
    }
  ],
  "buffers": [
    {
      "byteLength": 700544,
      "uri": "scene.bin"
    }
  ],
  "images": [
    {
      "uri": "textures/Material__caco_AO_png_emissive.png"
    },
    {
      "uri": "textures/Material__caco_AO_png_metallicRoughness.png"
    },
    {
      "uri": "textures/Material__caco_AO_png_baseColor.png"
    },
    {
      "uri": "textures/Material__caco_AO_png_normal.png"
    }
  ],
  "materials": [
    {
      "doubleSided": true,
      "emissiveFactor": [
        1,
        1,
        1
      ],
      "emissiveTexture": {
        "index": 0,
        "texCoord": 0
      },
      "name": "Material__caco_AO_png",
      "normalTexture": {
        "index": 3,
        "scale": 1,
        "texCoord": 0
      },
      "occlusionTexture": {
        "index": 1,
        "strength": 0.42594696970000001,
        "texCoord": 0
      },
      "pbrMetallicRoughness": {
        "baseColorFactor": [
          1,
          1,
          1,
          1
        ],
        "baseColorTexture": {
          "index": 2,
          "texCoord": 0
        },
        "metallicFactor": 0.78000000000000003,
        "metallicRoughnessTexture": {
          "index": 1,
          "texCoord": 0
        },
        "roughnessFactor": 0.75
      }
    }
  ],
  "meshes": [
    {
      "primitives": [
        {
          "attributes": {
            "NORMAL": 1,
            "POSITION": 0,
            "TANGENT": 2,
            "TEXCOORD_0": 3
          },
          "indices": 4,
          "material": 0,
          "mode": 4
        }
      ]
    }
  ],
  "nodes": [
    {
      "children": [
        1
      ],
      "name": "RootNode (gltf orientation matrix)",
      "rotation": [
        -0.70710678118654746,
        -0,
        -0,
        0.70710678118654757
      ]
    },
    {
      "children": [
        2
      ],
      "name": "RootNode (model correction matrix)"
    },
    {
      "children": [
        3
      ],
      "matrix": [
        1,
        0,
        0,
        0,
        0,
        0,
        1,
        0,
        0,
        -1,
        0,
        0,
        0,
        0,
        0,
        1
      ],
      "name": "caco2_lpUV_t.fbx"
    },
    {
      "children": [
        4
      ],
      "name": "RootNode"
    },
    {
      "children": [
        5
      ],
      "name": "Cube"
    },
    {
      "mesh": 0,
      "name": ""
    }
  ],
  "samplers": [
    {
      "magFilter": 9729,
      "minFilter": 9987,
      "wrapS": 10497,
      "wrapT": 10497
    }
  ],
  "scene": 0,
  "scenes": [
    {
      "name": "OSG_Scene",
      "nodes": [
        0
      ]
    }
  ],
  "textures": [
    {
      "sampler": 0,
      "source": 0
    },
    {
      "sampler": 0,
      "source": 1
    },
    {
      "sampler": 0,
      "source": 2
    },
    {
      "sampler": 0,
      "source": 3
    }
  ]
}

